<?xml version="1.0" encoding="utf-8"?>
<svg version="1.1" xmlns="http://www.w3.org/2000/svg" xmlns:xlink="http://www.w3.org/1999/xlink" 
     width="64" height="64" viewBox="0 0 64 64">
  <path fill="currentColor" d="M32 0C14.3 0 0 14.3 0 32s14.3 32 32 32 32-14.3 32-32S49.7 0 32 0zm16.4 21.9L38 43.4c-.6 1.2-1.8 1.9-3.1 1.9H19c-1.6 0-3-.9-3.6-2.3l-8-18.5c-.9-2.1.1-4.5 2.2-5.4 2.1-.9 4.5.1 5.4 2.2l6.5 15h11.6l7.7-15.9c.9-1.9 3.2-2.7 5.1-1.8 1.9.9 2.7 3.2 1.8 5.1zM47.5 13.5c-2.5-2.5-6.6-2.5-9.1 0l-2.7 2.7c-.8.8-.8 2.1 0 2.9.8.8 2.1.8 2.9 0l2.7-2.7c.9-.9 2.3-.9 3.2 0 .9.9.9 2.3 0 3.2l-2.7 2.7c-.8.8-.8 2.1 0 2.9.4.4.9.6 1.5.6s1.1-.2 1.5-.6l2.7-2.7c2.5-2.5 2.5-6.6 0-9.1z"/>
</svg>
