<?xml version="1.0" encoding="utf-8"?>
<svg version="1.1" xmlns="http://www.w3.org/2000/svg" xmlns:xlink="http://www.w3.org/1999/xlink" 
     width="64" height="64" viewBox="0 0 64 64">
  <path fill="currentColor" d="M0 28.7C0 12.8 14.3 0 32 0s32 12.8 32 28.7c0 15.8-14.3 28.6-32 28.6-5.5 0-10.7-1.3-15.2-3.6L0 61.3V28.7zM18.7 44.8h.7c1.3 0 2.5-.7 3.1-1.8l2.4-4.5c.6-1.1.4-2.5-.5-3.4l-1.2-1.2c2.4-4.5 7.1-7.5 12.5-7.5 5.4 0 10.1 3 12.5 7.5l-1.2 1.2c-.9.9-1.1 2.3-.5 3.4l2.4 4.5c.6 1.1 1.8 1.8 3.1 1.8h.7V54H18.7V44.8zm-5.3 12.1h37.2v-6.4c-1.9-.5-3.5-1.8-4.4-3.6l-2.4-4.5 2.8-2.8c-2.9-5.7-8.8-9.6-15.6-9.6s-12.7 3.9-15.6 9.6l2.8 2.8-2.4 4.5c-.9 1.8-2.5 3.1-4.4 3.6v6.4z"/>
</svg>
