<?xml version="1.0" encoding="utf-8"?>
<svg version="1.1" xmlns="http://www.w3.org/2000/svg" xmlns:xlink="http://www.w3.org/1999/xlink" 
     width="64" height="64" viewBox="0 0 64 64">
  <path fill="currentColor" d="M54.3 9.7C48.6 4 41 .8 32.9.8c-16.8 0-30.5 13.7-30.5 30.5 0 5.4 1.4 10.6 4.1 15.2L2.4 61.2l15.2-4c4.4 2.4 9.4 3.7 14.4 3.7h.01c16.8 0 30.5-13.7 30.5-30.5 0-8.2-3.2-15.9-8.9-21.7zM32.9 55.6c-4.6 0-9.1-1.2-13-3.5l-.9-.5-9.5 2.5 2.5-9.3-.6-1c-2.5-4-3.8-8.6-3.8-13.3 0-13.9 11.3-25.2 25.2-25.2 6.7 0 13 2.6 17.8 7.4 4.8 4.8 7.4 11.1 7.4 17.8.1 13.9-11.2 25.2-25.1 25.2zm13.8-18.8c-.8-.4-4.6-2.3-5.3-2.5-.7-.3-1.2-.4-1.7.4-.5.8-1.9 2.5-2.3 3-.4.5-.8.6-1.5.2-.8-.4-3.2-1.2-6.1-3.8-2.3-2-3.8-4.5-4.2-5.3-.4-.8 0-1.2.4-1.6.3-.3.8-.8 1.2-1.2s.5-.8.8-1.2c.3-.5.1-.9-.1-1.2-.3-.4-1.7-4.1-2.3-5.6-.6-1.5-1.2-1.3-1.7-1.3h-1.4c-.5 0-1.2.2-1.9.9-.6.8-2.4 2.3-2.4 5.7s2.5 6.6 2.8 7.1c.3.5 5.4 8.2 13 11.5 1.8.8 3.2 1.2 4.3 1.6 1.8.6 3.5.5 4.8.3 1.5-.2 4.6-1.9 5.3-3.7.6-1.8.6-3.4.4-3.7-.1-.4-.6-.6-1.4-1z"/>
</svg>
